<svg xmlns="http://www.w3.org/2000/svg" viewBox="0 0 512 512" role="img" aria-labelledby="title description">
  <title id="title">WeRead Notes</title>
  <desc id="description">WeRead Notes 的书页品牌标志</desc>
  <rect width="512" height="512" rx="104" fill="#1d4736"/>
  <circle cx="256" cy="256" r="166" fill="#2d684f"/>
  <path
    d="M119 155C171 149 216 166 256 203C296 166 341 149 393 155V327C341 320 296 337 256 375C216 337 171 320 119 327V155Z"
    fill="#f3f0e8"
  />
  <path d="M256 203V375" fill="none" stroke="#1d4736" stroke-width="13" stroke-linecap="round"/>
  <path
    d="M160 211C185 212 207 220 226 233M352 211C327 212 305 220 286 233"
    fill="none"
    stroke="#2d684f"
    stroke-width="12"
    stroke-linecap="round"
  />
  <path d="M352 155V246L327 230L302 246V162" fill="#ba7436"/>
</svg>
